<svg xmlns="http://www.w3.org/2000/svg" viewBox="0 0 400 400"><defs><style>.cls-1{fill:#fff;}</style></defs><title>lapfox-radio-icon-black</title><g id="Layer_2" data-name="Layer 2"><g id="Layer_1-2" data-name="Layer 1"><path d="M0,0H400V400H0ZM281.25,103c-19.86,18.31-34.62,39.88-48.62,62.4,11.83,14.82,27.85,22.5,46,27.59C282.45,162.79,287.25,133.39,281.25,103ZM118,103c-2.63,15.13-3.72,30-2.42,44.93s3,29.87,5.2,44.8c20.73-5.5,37.26-14.83,45.72-27.48C152.78,142.84,138,121.28,118,103Zm108,29.48.62.4c.84-.92,1.71-1.81,2.52-2.76q15.08-17.67,30.15-35.36c15.19-17.8,33.3-32.05,53.34-44,1.79-1.07,3.73-1.89,5.89-3a35.22,35.22,0,0,1,.72,3.56c1.61,19.93,3.1,39.88,2.79,59.89-.13,8.81-.31,17.71-1.56,26.41-3.59,25-9.37,49.64-14.84,74.31-.57,2.58-1,5.19-1.54,7.78l1,.21c5.25-21.27,10.78-42.48,15.63-63.84a192.49,192.49,0,0,0,5-31.51c1.59-27.83-.48-55.61-3-83.34-.16-1.73-.53-3.44-.89-5.67-1.48.93-2.34,1.4-3.13,2q-15.27,11.26-30.52,22.56c-25.24,18.77-45.29,42.09-60.77,69.41C226.8,130.48,226.39,131.48,225.93,132.45ZM77.25,35.15c-.47,2.71-.89,4.31-1,5.94-1.72,20.92-3.4,41.85-3.15,62.85.12,10.32.18,20.71,1.51,30.91,1.49,11.34,4.1,22.57,6.76,33.72,4,16.91,8.55,33.71,12.87,50.55a6.58,6.58,0,0,0,.23-4c-3.69-17.22-7.5-34.41-11.09-51.65-3.3-15.83-6.07-31.73-6.31-48-.32-21.19.91-42.3,2.44-63.41.11-1.46.43-2.9.66-4.42a6,6,0,0,1,1.68.29c2.47,1.38,4.94,2.76,7.35,4.24,16.92,10.47,32.8,22.26,46,37.26,11.89,13.49,23.49,27.24,35.21,40.87.54.63,1,1.31,1.59,1.93s.95.91,1.43,1.36a203.42,203.42,0,0,0-32.31-46.72C130.46,75.37,118.36,65.43,105.83,56,96.67,49.14,87.33,42.49,77.25,35.15ZM329.33,269a27,27,0,0,0,10.41-6c11.78-10.87,10.6-32.27,2.83-42.41a18.57,18.57,0,0,0-13.24-7.39ZM70,213.24c-7.41,1.13-12.56,4.81-15.35,10.79-5.18,11.12-5.66,22.54.59,33.51A24.31,24.31,0,0,0,70,269.19Zm14,62.37V208.28H74.21v67.33Zm231.31-67.52V275.5h9.43c.93-5.05.29-64.25-.69-67.41ZM217.22,315.87c-11.76-1.06-23.47-1.43-35.22.23l-2.77,4.36c4,9.51,12.68,12.95,20.5,17.28,8-4.73,17-7.89,20.26-17.59Zm6.67-37.75,32.39-1.31,13.8-17.75c-15.75-.33-30.08,2.48-44.37,7.43Zm-81-1.53c14.5,1.42,29,1.64,32.37.42l-1.74-10.48c-15.9-5.74-37.11-9-43.58-6.51Zm21.31,82.16.59-.66-69-51.17,2.38-25-.86-.17-8.16,28.73ZM303.5,307l-66.41,49.21.63.88,72.47-46.59L301.83,281l-.68.16ZM73.9,173.08c-13.32,11.85-17.58,26.54-17.73,43.79l6.51-5C63,198,69.41,186.16,73.9,173.08ZM342.7,216.42c1.61-15.7-5.61-33.62-17.09-42.93,4.46,12.91,10.81,25,11,38.39Z"/><path class="cls-1" d="M281.25,103c6,30.44,1.2,59.84-2.6,90-18.17-5.1-34.18-12.77-46-27.59C246.64,142.83,261.39,121.26,281.25,103Z"/><path class="cls-1" d="M118,103c20,18.31,34.8,39.87,48.49,62.25-8.46,12.66-25,22-45.72,27.48q-3.27-22.39-5.2-44.8C114.26,132.93,115.35,118.1,118,103Z"/><path class="cls-1" d="M225.93,132.45c.46-1,.86-2,1.39-2.9,15.48-27.32,35.53-50.64,60.77-69.41q15.23-11.32,30.52-22.56c.78-.58,1.64-1,3.13-2,.36,2.24.73,3.95.89,5.67,2.54,27.73,4.6,55.5,3,83.34a192.49,192.49,0,0,1-5,31.51C315.82,177.48,310.3,198.69,305,220l-1-.21c.51-2.59,1-5.2,1.54-7.78,5.47-24.67,11.25-49.28,14.84-74.31,1.25-8.7,1.43-17.6,1.56-26.41.31-20-1.18-40-2.79-59.89a35.22,35.22,0,0,0-.72-3.56c-2.16,1.08-4.09,1.91-5.89,3-20,11.9-38.15,26.16-53.34,44q-15.08,17.67-30.15,35.36c-.81.95-1.68,1.84-2.52,2.76Z"/><path class="cls-1" d="M77.25,35.15c10.08,7.35,19.42,14,28.58,20.87,12.53,9.41,24.63,19.36,35.28,30.9a203.42,203.42,0,0,1,32.31,46.72c-.48-.45-1-.87-1.43-1.36s-1-1.3-1.59-1.93C158.69,116.72,147.1,103,135.2,89.48c-13.22-15-29.1-26.79-46-37.26-2.4-1.49-4.88-2.87-7.35-4.24a6,6,0,0,0-1.68-.29c-.23,1.52-.55,3-.66,4.42C78,73.22,76.74,94.34,77.06,115.53c.25,16.25,3,32.15,6.31,48,3.59,17.24,7.4,34.43,11.09,51.65a6.58,6.58,0,0,1-.23,4c-4.31-16.84-8.82-33.64-12.87-50.55-2.67-11.15-5.28-22.38-6.76-33.72-1.34-10.2-1.39-20.6-1.51-30.91-.25-21,1.43-41.93,3.15-62.85C76.37,39.46,76.78,37.85,77.25,35.15Z"/><path class="cls-1" d="M329.33,269V213.25a18.57,18.57,0,0,1,13.24,7.39c7.77,10.14,8.95,31.54-2.83,42.41A27,27,0,0,1,329.33,269Z"/><path class="cls-1" d="M70,213.24v55.94a24.31,24.31,0,0,1-14.76-11.64c-6.25-11-5.77-22.39-.59-33.51C57.41,218.05,62.56,214.37,70,213.24Z"/><path class="cls-1" d="M84,275.61H74.21V208.28H84Z"/><path class="cls-1" d="M315.29,208.09H324c1,3.16,1.62,62.36.69,67.41h-9.43Z"/><path class="cls-1" d="M217.22,315.87l2.76,4.27c-3.29,9.7-12.27,12.86-20.26,17.59-7.83-4.33-16.46-7.77-20.5-17.28l2.77-4.36C193.75,314.43,205.45,314.8,217.22,315.87Z"/><path class="cls-1" d="M223.88,278.11l1.83-11.63c14.29-4.95,28.61-7.76,44.37-7.43l-13.8,17.75Z"/><path class="cls-1" d="M142.88,276.58l-13-16.56c6.47-2.45,27.69.76,43.58,6.51L175.24,277C171.86,278.22,157.38,278,142.88,276.58Z"/><path class="cls-1" d="M164.19,358.74,89.11,310.47l8.16-28.73.86.17-2.38,25,69,51.17Z"/><path class="cls-1" d="M303.5,307l-2.35-25.77.68-.16,8.35,29.43-72.47,46.59-.63-.88Z"/><path class="cls-1" d="M73.9,173.08C69.41,186.16,63,198,62.68,211.82l-6.51,5C56.33,199.63,60.59,184.93,73.9,173.08Z"/><path class="cls-1" d="M342.7,216.42l-6.07-4.54c-.2-13.44-6.56-25.48-11-38.39C337.09,182.79,344.31,200.71,342.7,216.42Z"/></g></g></svg>